<svg xmlns="http://www.w3.org/2000/svg" width="13" height="14" fill="none" viewBox="0 0 13 14"><path fill="#000" fill-rule="evenodd" d="M6.5196 3.53736C6.41147 1.90862 7.75308 0.56885 9.29627 0.4375C9.50852 2.3158 7.56085 3.72125 6.5196 3.53736ZM7.96133 13.2914C8.72224 13.6172 9.52054 13.7249 10.2441 13.034L10.2427 13.0432C11.1558 12.2419 11.7005 11.1583 12.125 10.0615C10.0038 9.22087 9.45646 6.22609 11.7659 4.86005C11.2052 4.07589 10.3656 3.63981 9.24287 3.55049C8.64553 3.50851 8.08856 3.69786 7.53639 3.88557C7.22476 3.99151 6.91466 4.09693 6.59969 4.15996C6.34856 4.14255 6.07718 4.04302 5.77083 3.93068C5.36065 3.78025 4.8878 3.60684 4.31695 3.57676C0.205341 3.78692 -0.328633 9.3693 3.28905 13.034C3.92982 13.6119 4.4945 13.7432 5.55844 13.2914C6.4128 12.9381 7.15236 12.9591 7.96133 13.2914Z" clip-rule="evenodd"/></svg>