<svg width="20" height="20" viewBox="0 0 20 20" fill="none" xmlns="http://www.w3.org/2000/svg">
<path d="M10.3125 1.25C15.3219 1.25 19.375 5.30478 19.375 10.3087C19.375 15.3126 15.3219 19.375 10.3125 19.375C5.30308 19.375 1.25 15.3202 1.25 10.3163C1.25 5.31237 5.30308 1.25 10.3125 1.25Z" fill="#E74D89"/>
<path fill-rule="evenodd" clip-rule="evenodd" d="M10 20C4.48438 20 0 15.5182 0 10.0039C0 4.48182 4.48438 0 10 0C15.5156 0 20 4.48181 20 9.99609C20 15.5104 15.5156 20 10 20ZM18.4297 11.3649C18.1406 11.271 15.7891 10.5749 13.1094 10.9973C14.2266 14.0634 14.6797 16.5663 14.7656 17.0825C16.6875 15.7919 18.0547 13.7427 18.4297 11.3649ZM11.5156 11.3962C12.7109 14.5092 13.2109 17.1216 13.3359 17.8725C12.3125 18.3105 11.1797 18.553 10 18.5452C8.02344 18.5452 6.20312 17.8725 4.75781 16.7462C4.91406 16.4333 6.64062 13.0935 11.4609 11.4118C11.4766 11.4118 11.5 11.404 11.5156 11.3962ZM3.65625 15.7215C3.85156 15.393 6.19531 11.5135 10.6016 10.0821C10.6912 10.0501 10.7861 10.0233 10.8776 9.99742L10.9375 9.98045C10.7266 9.4955 10.4922 9.01056 10.2422 8.53344C5.97656 9.80837 1.83594 9.75362 1.46094 9.7458C1.46094 9.78882 1.45898 9.83183 1.45703 9.87485C1.45508 9.91787 1.45312 9.96089 1.45312 10.0039C1.46094 12.2018 2.28906 14.2041 3.65625 15.7215ZM9.53906 7.2194C5.53906 8.28314 2.02344 8.2675 1.64062 8.25968C2.19531 5.61596 3.97656 3.41025 6.375 2.28393L6.40107 2.32023C6.69529 2.72965 8.17195 4.78444 9.53906 7.2194ZM8 1.70512C8.23438 2.01799 9.78906 4.12984 11.1875 6.70317C14.2266 5.5612 15.5078 3.84044 15.6641 3.62143C14.1562 2.28393 12.1719 1.47047 10 1.47047C9.3125 1.47047 8.64062 1.55651 8 1.70512ZM11.8438 7.9781C15 6.68752 16.4297 4.84943 16.6094 4.60696C17.8047 6.06179 18.5234 7.91553 18.5469 9.92569C18.5398 9.92432 18.5312 9.92262 18.521 9.92061C18.1241 9.84249 15.374 9.30117 12.6016 9.65194C12.5391 9.51116 12.4766 9.36257 12.4141 9.21398L12.4141 9.21392C12.2344 8.79937 12.0391 8.38483 11.8438 7.9781Z" fill="#B2215A"/>
</svg>
