<svg width="15" height="14" viewBox="0 0 15 14" fill="none" xmlns="http://www.w3.org/2000/svg">
<mask id="mask0_68_1132" style="mask-type:alpha" maskUnits="userSpaceOnUse" x="0" y="0" width="15" height="14">
<path fill-rule="evenodd" clip-rule="evenodd" d="M13.9099 5.80682H7.65262V8.34233H11.2544C10.9186 9.95312 9.51453 10.8778 7.65262 10.8778C5.45494 10.8778 3.68459 9.14773 3.68459 7C3.68459 4.85227 5.45494 3.12216 7.65262 3.12216C8.59884 3.12216 9.45349 3.45028 10.125 3.98722L12.0785 2.07812C10.8881 1.06392 9.36192 0.4375 7.65262 0.4375C3.92878 0.4375 0.9375 3.3608 0.9375 7C0.9375 10.6392 3.92878 13.5625 7.65262 13.5625C11.0102 13.5625 14.0625 11.1761 14.0625 7C14.0625 6.61222 14.0015 6.1946 13.9099 5.80682Z" fill="white"/>
</mask>
<g mask="url(#mask0_68_1132)">
<path d="M0.327034 10.8778V3.12213L5.51599 6.99997L0.327034 10.8778Z" fill="#FBBC05"/>
</g>
<mask id="mask1_68_1132" style="mask-type:alpha" maskUnits="userSpaceOnUse" x="0" y="0" width="15" height="14">
<path fill-rule="evenodd" clip-rule="evenodd" d="M13.9099 5.80682H7.65262V8.34233H11.2544C10.9186 9.95312 9.51453 10.8778 7.65262 10.8778C5.45494 10.8778 3.68459 9.14773 3.68459 7C3.68459 4.85227 5.45494 3.12216 7.65262 3.12216C8.59884 3.12216 9.45349 3.45028 10.125 3.98722L12.0785 2.07812C10.8881 1.06392 9.36192 0.4375 7.65262 0.4375C3.92878 0.4375 0.9375 3.3608 0.9375 7C0.9375 10.6392 3.92878 13.5625 7.65262 13.5625C11.0102 13.5625 14.0625 11.1761 14.0625 7C14.0625 6.61222 14.0015 6.1946 13.9099 5.80682Z" fill="white"/>
</mask>
<g mask="url(#mask1_68_1132)">
<path d="M0.327034 3.12213L5.51599 6.99997L7.65262 5.18037L14.9782 4.01702V-0.159119H0.327034V3.12213Z" fill="#EA4335"/>
</g>
<mask id="mask2_68_1132" style="mask-type:alpha" maskUnits="userSpaceOnUse" x="0" y="0" width="15" height="14">
<path fill-rule="evenodd" clip-rule="evenodd" d="M13.9099 5.80682H7.65262V8.34233H11.2544C10.9186 9.95312 9.51453 10.8778 7.65262 10.8778C5.45494 10.8778 3.68459 9.14773 3.68459 7C3.68459 4.85227 5.45494 3.12216 7.65262 3.12216C8.59884 3.12216 9.45349 3.45028 10.125 3.98722L12.0785 2.07812C10.8881 1.06392 9.36192 0.4375 7.65262 0.4375C3.92878 0.4375 0.9375 3.3608 0.9375 7C0.9375 10.6392 3.92878 13.5625 7.65262 13.5625C11.0102 13.5625 14.0625 11.1761 14.0625 7C14.0625 6.61222 14.0015 6.1946 13.9099 5.80682Z" fill="white"/>
</mask>
<g mask="url(#mask2_68_1132)">
<path d="M0.327034 10.8778L9.48401 4.01702L11.8953 4.31531L14.9782 -0.159119V14.1591H0.327034V10.8778Z" fill="#34A853"/>
</g>
<mask id="mask3_68_1132" style="mask-type:alpha" maskUnits="userSpaceOnUse" x="0" y="0" width="15" height="14">
<path fill-rule="evenodd" clip-rule="evenodd" d="M13.9099 5.80682H7.65262V8.34233H11.2544C10.9186 9.95312 9.51453 10.8778 7.65262 10.8778C5.45494 10.8778 3.68459 9.14773 3.68459 7C3.68459 4.85227 5.45494 3.12216 7.65262 3.12216C8.59884 3.12216 9.45349 3.45028 10.125 3.98722L12.0785 2.07812C10.8881 1.06392 9.36192 0.4375 7.65262 0.4375C3.92878 0.4375 0.9375 3.3608 0.9375 7C0.9375 10.6392 3.92878 13.5625 7.65262 13.5625C11.0102 13.5625 14.0625 11.1761 14.0625 7C14.0625 6.61222 14.0015 6.1946 13.9099 5.80682Z" fill="white"/>
</mask>
<g mask="url(#mask3_68_1132)">
<path d="M14.9782 14.1591L5.51599 6.99997L4.29506 6.10509L14.9782 3.12213V14.1591Z" fill="#4285F4"/>
</g>
</svg>
