<svg width="15" height="14" viewBox="0 0 15 14" fill="none" xmlns="http://www.w3.org/2000/svg">
<path d="M3.27273 0.869629L7.5 0.4375L11.7273 0.869629L15 5.11768L7.5 13.5625L0 5.11768L3.27273 0.869629Z" fill="#FDB300"/>
<path d="M3.03788 5.125L7.50001 13.5625L0 5.125H3.03788Z" fill="#EA6C00"/>
<path d="M11.9621 5.125L7.49999 13.5625L15 5.125H11.9621Z" fill="#EA6C00"/>
<path d="M3.03788 5.125H11.9621L7.50001 13.5625L3.03788 5.125Z" fill="#FDAD00"/>
<path d="M7.5 0.4375L3.27271 0.8703L3.03787 5.125L7.5 0.4375Z" fill="#FDD231"/>
<path d="M7.49998 0.4375L11.7273 0.8703L11.9621 5.125L7.49998 0.4375Z" fill="#FDD231"/>
<path d="M15 5.125L11.7272 0.8703L11.9621 5.125H15Z" fill="#FDAD00"/>
<path d="M0 5.125L3.27271 0.8703L3.03787 5.125H0Z" fill="#FDAD00"/>
<path d="M7.5 0.4375L3.03787 5.125H11.9621L7.5 0.4375Z" fill="#FEEEB7"/>
</svg>
