<svg xmlns="http://www.w3.org/2000/svg" width="15" height="14" fill="none" viewBox="0 0 15 14"><path fill="#36C5F0" d="M5.70974 0.4375C5.05027 0.437987 4.51656 0.972291 4.51704 1.63068C4.51656 2.28907 5.05076 2.82338 5.71023 2.82386H6.90341V1.63117C6.9039 0.972777 6.36969 0.438473 5.70974 0.4375C5.71023 0.4375 5.71023 0.4375 5.70974 0.4375"/><path fill="#36C5F0" d="M5.62478 4.01704H2.21613C1.50944 4.01753 0.936979 4.55173 0.937501 5.20998C0.936457 5.86824 1.50892 6.40244 2.21561 6.40341H5.62478C6.33147 6.40292 6.90393 5.86873 6.90341 5.21047C6.90393 4.55173 6.33147 4.01753 5.62478 4.01704Z"/><path fill="#2EB67D" d="M14.0625 5.20998C14.063 4.55173 13.5288 4.01753 12.8693 4.01704C12.2098 4.01753 11.6756 4.55173 11.6761 5.20998V6.40341H12.8693C13.5288 6.40292 14.063 5.86873 14.0625 5.20998Z"/><path fill="#2EB67D" d="M10.483 5.12474V1.71565C10.4834 1.01089 9.94962 0.438543 9.29001 0.4375C8.63041 0.438021 8.0961 1.01037 8.09659 1.71565V5.12474C8.09561 5.83001 8.62993 6.40237 9.28953 6.40341C9.94913 6.40289 10.4834 5.83054 10.483 5.12474Z"/><path fill="#ECB22E" d="M9.28977 13.5625C9.94924 13.562 10.4834 13.0277 10.483 12.3693C10.4834 11.7109 9.94924 11.1766 9.28977 11.1761H8.09659V12.3693C8.0961 13.0272 8.6303 13.5615 9.28977 13.5625Z"/><path fill="#ECB22E" d="M9.3747 9.98295H12.7839C13.4906 9.98247 14.063 9.44827 14.0625 8.79001C14.0635 8.13176 13.4911 7.59756 12.7844 7.59659H9.37522C8.66853 7.59707 8.09607 8.13127 8.09659 8.78953C8.09607 9.44827 8.668 9.98247 9.3747 9.98295Z"/><path fill="#E01E5A" d="M0.9375 8.78977C0.937013 9.44816 1.47122 9.98247 2.13068 9.98295C2.79015 9.98247 3.32435 9.44816 3.32386 8.78977V7.59659H2.13068C1.47122 7.59707 0.937013 8.13138 0.9375 8.78977Z"/><path fill="#E01E5A" d="M4.51705 8.87433V12.2837C4.51607 12.9891 5.05038 13.5615 5.70998 13.5625C6.36958 13.562 6.90389 12.9896 6.90341 12.2842V8.87537C6.90438 8.17003 6.37007 7.59763 5.71047 7.59659C5.05038 7.59659 4.51656 8.16899 4.51705 8.87433C4.51705 8.87485 4.51705 8.87433 4.51705 8.87433Z"/></svg>