<svg xmlns="http://www.w3.org/2000/svg" width="15" height="16" fill="none" viewBox="0 0 15 16"><path fill="#35D266" fill-rule="evenodd" d="M11.25 14.4869C10.1008 15.1623 8.85081 15.5 7.5 15.5C6.14919 15.5 4.89919 15.1623 3.75 14.4869C2.60081 13.8115 1.68851 12.8992 1.0131 11.75C0.337702 10.6008 0 9.35081 0 8C0 6.64919 0.337702 5.39919 1.0131 4.25C1.68851 3.10081 2.60081 2.18851 3.75 1.5131C4.89919 0.837702 6.14919 0.5 7.5 0.5C8.85081 0.5 10.1008 0.837702 11.25 1.5131C12.3992 2.18851 13.3115 3.10081 13.9869 4.25C14.6623 5.39919 15 6.64919 15 8C15 9.35081 14.6623 10.6008 13.9869 11.75C13.3115 12.8992 12.3992 13.8115 11.25 14.4869ZM11.9153 7.12298C12.0363 7.20363 12.1673 7.24395 12.3085 7.24395C12.4899 7.24395 12.6512 7.17843 12.7923 7.04738C12.9335 6.91633 13.004 6.75 13.004 6.54839C13.004 6.24597 12.873 6.01411 12.6109 5.85282C11.7843 5.38911 10.8165 5.02621 9.70766 4.76411C8.63911 4.52218 7.54032 4.40121 6.41129 4.40121C5.08065 4.40121 3.89113 4.5625 2.84274 4.88508C2.70161 4.9254 2.58065 5.00605 2.47984 5.12702C2.37903 5.24798 2.32863 5.40423 2.32863 5.59577C2.32863 5.7873 2.39415 5.95363 2.5252 6.09476C2.65625 6.23589 2.82258 6.30645 3.02419 6.30645C3.10484 6.30645 3.21573 6.28629 3.35685 6.24597L3.41734 6.21573C4.6875 5.87298 6.13911 5.78226 7.77218 5.94355C9.46573 6.10484 10.8468 6.49798 11.9153 7.12298ZM11.371 9.54234C11.2702 9.54234 11.1593 9.5121 11.0383 9.45161L10.9778 9.42137C10.0101 8.85686 8.89113 8.48387 7.62097 8.30242C6.27016 8.12097 4.98992 8.20161 3.78024 8.54436L3.65927 8.5746C3.55847 8.59476 3.47782 8.60484 3.41734 8.60484C3.25605 8.60484 3.11492 8.5494 2.99395 8.43851C2.87298 8.32762 2.8125 8.19153 2.8125 8.03024C2.8125 7.70766 2.97379 7.49597 3.29637 7.39516C4.26411 7.13306 5.24194 7.00202 6.22984 7.00202C7.21774 7.00202 8.1754 7.11794 9.10282 7.3498C10.0302 7.58165 10.8669 7.91935 11.6129 8.3629C11.8347 8.50403 11.9456 8.70565 11.9456 8.96774C11.9456 9.12903 11.8901 9.26512 11.7792 9.37601C11.6683 9.4869 11.5323 9.54234 11.371 9.54234ZM10.2218 11.4173C10.3427 11.498 10.4536 11.5383 10.5544 11.5383C10.6754 11.5383 10.7812 11.4929 10.872 11.4022C10.9627 11.3115 11.0081 11.2006 11.0081 11.0696C11.0081 10.9385 10.9829 10.8377 10.9325 10.7671C10.8821 10.6966 10.8065 10.631 10.7056 10.5706C8.77016 9.42137 6.38105 9.15927 3.53831 9.78427C3.27621 9.84476 3.14516 10.0161 3.14516 10.2984C3.14516 10.4194 3.18548 10.5252 3.26613 10.6159C3.34677 10.7067 3.45766 10.752 3.59879 10.752C3.65927 10.752 3.76008 10.7419 3.90121 10.7218L3.96169 10.6915C6.46169 10.1673 8.54839 10.4093 10.2218 11.4173Z" clip-rule="evenodd"/></svg>